<?xml version="1.0" encoding="UTF-8" standalone="no"?>
<svg
   xmlns:dc="http://purl.org/dc/elements/1.1/"
   xmlns:cc="http://creativecommons.org/ns#"
   xmlns:rdf="http://www.w3.org/1999/02/22-rdf-syntax-ns#"
   xmlns:svg="http://www.w3.org/2000/svg"
   xmlns="http://www.w3.org/2000/svg"
   xmlns:xlink="http://www.w3.org/1999/xlink"
   width="210mm"
   height="297mm"
   viewBox="0 0 210 297"
   version="1.1"
   id="svg8">
  <defs
     id="defs2">
    <linearGradient
       id="linearGradient851">
      <stop
         id="stop847"
         offset="0"
         style="stop-color:#ff0000;stop-opacity:1;" />
      <stop
         id="stop849"
         offset="1"
         style="stop-color:#ff0000;stop-opacity:0;" />
    </linearGradient>
    <linearGradient
       gradientUnits="userSpaceOnUse"
       y2="-506.41846"
       x2="175.98537"
       y1="-260.4133"
       x1="-433.34177"
       id="linearGradient853"
       xlink:href="#linearGradient851" />
  </defs>
  <metadata
     id="metadata5">
    <rdf:RDF>
      <cc:Work
         rdf:about="">
        <dc:format>image/svg+xml</dc:format>
        <dc:type
           rdf:resource="http://purl.org/dc/dcmitype/StillImage" />
        <dc:title></dc:title>
      </cc:Work>
    </rdf:RDF>
  </metadata>
  <g
     id="layer1">
    <path
       style="fill:#aa87de;fill-opacity:0.911647;stroke:url(#linearGradient853);stroke-width:9.54259;stroke-opacity:1"
       d="m -14.579749,-298.81994 c -4.298834,-0.25179 -23.06588,-1.57101 -41.704554,-2.93167 -48.713537,-3.55619 -57.713667,-3.97208 -87.689627,-4.05208 -31.24841,-0.0834 -63.47601,1.79144 -96.60565,5.62002 -11.27294,1.30274 -20.75845,2.14731 -21.07891,1.8768 -0.32047,-0.2705 1.24754,-4.34475 3.48449,-9.05391 7.78847,-16.39611 9.21224,-25.1804 7.68676,-47.42533 -1.33006,-19.39541 -5.64056,-35.48617 -17.05153,-63.65195 l -4.79478,-11.83501 1.71457,-5.31763 c 7.36221,-22.83303 22.60381,-37.32993 46.3774,-44.11144 6.21724,-1.77349 8.77098,-2.0044 29.3124,-2.65041 20.58461,-0.64736 23.59216,-0.56452 35.29964,0.97224 32.36942,4.24892 54.6935,8.96439 99.418402,20.9999 34.480996,9.27888 50.7314775,12.91479 65.8375827,14.73064 19.1921303,2.30702 46.5451183,1.29048 64.1781983,-2.3851 5.200678,-1.08407 16.343401,-4.28894 24.761629,-7.12194 8.418208,-2.83298 15.421568,-5.05319 15.563008,-4.93379 0.14149,0.11941 -1.39187,2.73422 -3.4074,5.81072 -7.417174,11.32141 -12.79054,23.12567 -15.927615,34.98982 -3.575237,13.52118 -2.443824,32.51269 2.734464,45.90007 5.051153,13.05871 18.382051,32.89157 33.029681,49.13952 l 3.19489,3.54392 -7.25687,2.63746 c -15.24491,5.54062 -40.447534,11.9589 -62.25448,15.85419 -10.466724,1.86962 -61.4028445,4.1808 -74.821743,3.39495 z m -38.526274,-21.70145 c -0.02155,-0.56102 -1.563472,-5.89879 -3.426506,-11.86169 -4.032123,-12.90547 -6.458824,-23.23446 -6.844697,-29.13368 -0.531473,-8.12531 -0.804714,-7.63241 4.081271,-7.36215 3.314116,0.18337 4.328781,-0.015 4.287033,-0.83798 -0.129014,-2.54376 -3.687172,-4.49218 -7.958239,-4.35785 l -2.715775,0.0854 0.147664,-8.8254 c 0.08123,-4.85398 0.283421,-16.9778 0.449347,-26.94184 0.314064,-18.85978 -0.141075,-23.36669 -2.431808,-24.08053 -3.432433,-1.06963 -6.266194,-0.23738 -8.824549,2.59168 -7.645907,8.45495 -18.58323,37.90958 -22.175387,59.71914 -0.833612,5.06121 -1.876611,9.65458 -2.317791,10.2075 -0.44118,0.55293 -2.49329,1.0585 -4.56026,1.1235 -2.87237,0.0903 -3.99063,-0.24408 -4.74463,-1.41891 -1.27728,-1.99016 -6.17764,-1.93382 -8.06719,0.0927 -0.74343,0.79733 -2.34543,6.05196 -3.56002,11.67697 -4.03963,18.70831 -6.00509,23.28381 -10.05656,23.41123 -3.32574,0.10459 -6.92779,-3.60591 -12.13648,-12.50197 -4.2381,-7.23832 -11.2439,-22.85784 -11.33808,-25.27838 -0.0314,-0.80637 1.05623,-1.04127 4.34665,-0.93874 6.95846,0.21677 10.10235,-0.77303 14.28323,-4.49702 4.50777,-4.01514 7.83175,-10.49678 9.66318,-18.84285 1.03788,-4.7297 1.17375,-9.42116 0.66014,-22.79265 -0.60811,-15.83187 -0.76737,-17.02513 -2.66738,-19.98608 -3.59473,-5.60198 -9.23893,-7.40114 -15.59703,-4.97175 -6.59276,2.51906 -10.99672,9.21545 -17.6728,26.87212 l -3.15029,8.33179 0.22612,-5.4956 c 0.12493,-3.02256 0.30515,-10.37246 0.40146,-16.33306 l 0.17514,-10.83748 -3.8032,0.36666 -3.80318,0.36667 -1.67626,5.14915 c -0.92195,2.83205 -2.41054,9.75905 -3.30798,15.39336 -1.52179,9.55407 -1.55403,12.1697 -0.47855,38.8264 0.92652,22.96454 1.47746,29.85424 2.80328,35.05425 2.23578,8.7691 3.56954,10.37603 8.23481,9.92133 l 3.61809,-0.35263 -0.38036,-16.84549 -0.38037,-16.84549 3.34604,9.30358 c 3.83531,10.66396 8.84963,19.60878 14.68531,26.19644 5.27715,5.95717 8.85364,8.12485 13.86245,8.40189 3.44088,0.19035 4.40609,-0.10486 6.83859,-2.09158 4.41708,-3.60759 6.83189,-9.76023 11.80209,-30.07051 l 0.77345,-3.16059 6.07831,-0.25114 6.0783,-0.25114 0.3663,9.53631 c 0.400887,10.43677 1.529803,14.43808 4.051163,14.35878 0.877332,-0.0275 1.798571,-0.37251 2.047193,-0.76648 0.24861,-0.39397 0.643828,-5.96349 0.87826,-12.3767 0.234432,-6.4132 0.57615,-12.37293 0.759381,-13.24387 0.221767,-1.05402 2.766722,-2.77267 7.611039,-5.1398 4.002826,-1.95595 7.413095,-3.56053 7.578365,-3.56572 0.165282,-0.005 0.655816,2.36097 1.090095,5.25817 1.381947,9.21925 5.727244,24.23951 8.698869,30.06918 3.977754,7.80347 7.402139,11.17605 11.225626,11.05579 1.859684,-0.0585 2.951473,-0.47377 2.926908,-1.11331 z m 29.373011,-13.46322 c 4.588666,-4.45117 11.01907,-27.08221 14.9948404,-52.77259 1.1345293,-7.33113 1.4121608,-13.1524 1.0859919,-22.77212 -0.3897251,-11.4951 -0.6691027,-13.42674 -2.5276823,-17.47834 -2.81653,-6.13994 -4.42599,-7.52744 -8.252911,-7.11479 -2.995982,0.32306 -3.057129,0.40015 -2.74084,3.45652 1.775661,17.15889 2.091332,23.89356 1.455515,31.05339 -0.861108,9.69669 -4.918902,36.08658 -7.032435,45.73544 -1.448244,6.61167 -4.127075,12.03082 -5.945493,12.0275 -3.493137,-0.006 -11.665716,-27.38519 -14.332712,-48.01572 -0.666271,-5.15389 -1.640967,-14.64967 -2.166001,-21.10171 -1.356588,-16.67105 -1.854728,-19.15133 -3.83384,-19.08909 -4.474268,0.14072 -5.662041,24.2701 -2.184035,44.36851 3.475761,20.0855 8.731072,37.72862 13.767151,46.21905 5.066791,8.54223 12.262875,10.77022 17.712451,5.48395 z M -207.927,-356.77462 c -1.16909,-28.65208 -1.01681,-38.91404 0.88307,-59.50979 l 0.37092,-4.02089 13.51928,-1.12037 c 13.09273,-1.08502 13.52586,-1.17619 13.72803,-2.88982 0.29857,-2.53099 -1.92407,-2.9646 -15.95174,-3.11189 -6.6519,-0.0698 -12.49651,-0.46642 -12.98801,-0.88129 -1.55499,-1.31254 -5.10806,-0.6902 -8.28028,1.45036 -1.68623,1.13782 -5.87627,2.86958 -9.31118,3.84836 -11.73931,3.34507 -21.40442,8.09995 -21.3128,10.48513 0.0682,1.77527 3.92807,1.24409 15.274,-2.1019 12.84618,-3.78845 13.37392,-3.82915 12.87332,-0.99292 -4.06435,23.02771 -2.69134,80.64226 2.10052,88.14155 0.65809,1.02991 1.96937,1.31018 5.59621,1.19611 l 4.73676,-0.14896 z m 278.726782,20.77831 c 1.320866,-0.5026 5.31444,-1.24566 8.874592,-1.65122 5.896823,-0.67177 6.492037,-0.89888 6.686485,-2.55143 0.358505,-3.04669 -1.446729,-4.02769 -7.085427,-3.85036 -2.824918,0.0888 -6.87418,0.61616 -8.998323,1.1718 -5.369321,1.40456 -7.737333,0.40097 -9.195346,-3.89704 -0.786512,-2.31855 -1.272682,-10.24114 -1.59884,-26.05482 -0.459249,-22.26543 -0.411176,-23.10415 2.385352,-41.63061 1.569708,-10.39906 2.833373,-19.52419 2.808142,-20.27805 -0.07172,-2.14298 -5.754935,-1.71295 -6.971355,0.5275 -3.892786,7.16985 -8.012577,25.44139 -9.230666,40.93852 -0.972572,12.37385 0.08156,46.02856 1.575986,50.31416 0.553285,1.58671 2.350407,4.08822 3.99363,5.55889 2.829946,2.53284 3.287593,2.66453 8.670916,2.49522 3.125791,-0.0983 6.763988,-0.58996 8.084854,-1.09256 z m -42.576105,-0.26812 c 6.601257,-1.72683 11.970776,-9.69205 6.415838,-9.51736 -1.245109,0.0392 -4.06238,0.71371 -6.2606,1.49901 -5.70337,2.03747 -8.409442,1.31351 -10.636639,-2.8456 -2.492334,-4.65428 -3.853217,-12.32848 -4.339719,-24.47238 -0.477727,-11.92566 -1.358418,-10.71136 9.399714,-12.96081 5.049529,-1.05583 6.969354,-1.79576 7.132063,-2.74883 0.337618,-1.97738 -5.227157,-3.14818 -11.307664,-2.37907 -3.687735,0.46644 -5.05495,0.38061 -5.081827,-0.31905 -0.0694,-1.80798 3.088714,-33.22227 3.61663,-35.9748 0.817976,-4.26479 3.493016,-5.15005 17.738289,-5.87016 6.659122,-0.33662 12.977133,-0.81188 14.040039,-1.05613 2.538479,-0.58332 2.388037,-2.42934 -0.319052,-3.91536 -3.639788,-1.99804 -11.386758,-2.25431 -26.368403,-0.87229 l -14.1059553,1.30126 -2.8268304,4.32241 c -1.7579237,2.68797 -2.6157058,4.85898 -2.2684841,5.74135 0.3070944,0.78043 0.1111874,4.7265 -0.4353671,8.76908 -1.0970653,8.11442 -2.05180067,18.33259 -2.78539891,29.81073 -0.3389553,5.30324 -0.98349089,8.33019 -2.18507969,10.2616 -1.996732,3.20949 -2.1143623,5.15652 -0.3448568,5.70793 1.3362714,0.41644 1.577533,1.27068 3.58826697,12.70574 1.97650803,11.24031 4.41787913,16.71509 9.13847633,20.49305 4.51891,3.61654 10.38179,4.36393 18.196571,2.31968 z"
       id="path845" />
    <path
       style="fill:#c6afe9;fill-opacity:0.911647;stroke-width:34.3081"
       d=""
       id="path857"
       transform="scale(0.26458333)" />
    <path
       style="fill:#c6afe9;fill-opacity:0.911647;stroke-width:34.3081"
       d=""
       id="path861"
       transform="scale(0.26458333)" />
    <path
       style="fill:#c6afe9;fill-opacity:0.911647;stroke-width:34.3081"
       d=""
       id="path863"
       transform="scale(0.26458333)" />
    <path
       style="fill:#c6afe9;fill-opacity:0.911647;stroke-width:34.3081"
       d=""
       id="path865"
       transform="scale(0.26458333)" />
    <path
       style="fill:#c6afe9;fill-opacity:0.911647;stroke-width:34.3081"
       d=""
       id="path867"
       transform="scale(0.26458333)" />
    <path
       style="fill:#c6afe9;fill-opacity:0.911647;stroke-width:34.3081"
       d=""
       id="path869"
       transform="scale(0.26458333)" />
    <path
       style="fill:#c6afe9;fill-opacity:0.911647;stroke-width:34.3081"
       d=""
       id="path871"
       transform="scale(0.26458333)" />
    <path
       style="fill:#c6afe9;fill-opacity:0.911647;stroke-width:34.3081"
       d=""
       id="path873"
       transform="scale(0.26458333)" />
  </g>
</svg>
